<?xml version="1.0" encoding="UTF-8"?>
<svg version="1.1" xmlns="http://www.w3.org/2000/svg" width="200" height="200">
<path d="M0 0 C36.96 0 73.92 0 112 0 C112 4.62 112 9.24 112 14 C132.46 14 152.92 14 174 14 C174 24.23 174 34.46 174 45 C171.24035889 44.97268799 168.48071777 44.94537598 165.63745117 44.91723633 C156.48917517 44.83477839 147.34147255 44.81325926 138.19285107 44.82121754 C132.64915349 44.82418838 127.10708038 44.80704645 121.5637207 44.74291992 C116.20730463 44.68171289 110.85323363 44.67467115 105.49657631 44.70416832 C103.45972736 44.70606247 101.42276304 44.68889207 99.38625145 44.65177345 C96.51684155 44.60282921 93.65532898 44.62355185 90.78588867 44.65942383 C89.95581802 44.62922653 89.12574738 44.59902924 88.27052307 44.56791687 C78.77650176 44.84805181 77.71874656 49.28125344 70 57 C85.84 57.33 101.68 57.66 118 58 C118 67.9 118 77.8 118 88 C115.6394043 87.96745117 113.27880859 87.93490234 110.84667969 87.90136719 C103.00762252 87.80214317 95.16928494 87.76975548 87.32963181 87.76940536 C82.58045954 87.76717427 77.83357632 87.74312086 73.08496094 87.66748047 C68.4934234 87.59517353 63.90507745 87.58243093 59.31308746 87.60929108 C57.57007564 87.60934646 55.82692445 87.58869353 54.08443451 87.5460434 C51.62143395 87.48946038 49.16921886 87.50965864 46.70605469 87.54589844 C46.00113892 87.51210587 45.29622314 87.47831329 44.56994629 87.4434967 C35.40314634 87.77461151 33.0135387 93.9864613 26 101 C50.255 101.495 50.255 101.495 75 102 C75 111.9 75 121.8 75 132 C52.89 132 30.78 132 8 132 C8 127.38 8 122.76 8 118 C0.08 118 -7.84 118 -16 118 C-16 107.77 -16 97.54 -16 87 C-12.22949219 87.05542969 -8.45898438 87.11085938 -4.57421875 87.16796875 C-0.89365397 87.18418166 2.78645001 87.18148444 6.46704102 87.17700195 C9.01111688 87.18394724 11.55522106 87.21033677 14.09887695 87.25708008 C29.89531136 88.25747474 29.89531136 88.25747474 43.73373413 82.12954712 C45.68369411 79.90986488 47.31424918 77.42643304 49 75 C34.15 74.505 34.15 74.505 19 74 C19 64.1 19 54.2 19 44 C25.50460938 44.10054687 25.50460938 44.10054687 32.140625 44.203125 C35.62993503 44.22294188 39.11881042 44.23062936 42.6081543 44.23020935 C46.27515547 44.23305499 49.93919196 44.25652971 53.60546875 44.33251953 C57.14688951 44.40508324 60.68417631 44.41749479 64.22618866 44.39070892 C66.2137242 44.39062714 68.20097697 44.45053155 70.18756104 44.51202393 C82.6568536 44.31987092 82.82507685 41.17492315 93 31 C62.31 30.67 31.62 30.34 0 30 C0 20.1 0 10.2 0 0 Z " fill="#55B4C8" transform="translate(21,34)"/>
<path d="M0 0 C2.34944855 0.06531198 4.69907241 0.12460946 7.04882812 0.17773438 C12.76963431 0.30889924 18.46580695 0.56298897 24.1875 0.8125 C24.1875 10.7125 24.1875 20.6125 24.1875 30.8125 C21.8269043 30.77995117 19.46630859 30.74740234 17.03417969 30.71386719 C9.19512252 30.61464317 1.35678494 30.58225548 -6.48286819 30.58190536 C-11.23204046 30.57967427 -15.97892368 30.55562086 -20.72753906 30.47998047 C-25.3190766 30.40767353 -29.90742255 30.39493093 -34.49941254 30.42179108 C-36.24242436 30.42184646 -37.98557555 30.40119353 -39.72806549 30.3585434 C-42.19106605 30.30196038 -44.64328114 30.32215864 -47.10644531 30.35839844 C-47.81136108 30.32460587 -48.51627686 30.29081329 -49.24255371 30.2559967 C-58.40935366 30.58711151 -60.7989613 36.7989613 -67.8125 43.8125 C-43.5575 44.3075 -43.5575 44.3075 -18.8125 44.8125 C-18.8125 54.7125 -18.8125 64.6125 -18.8125 74.8125 C-40.9225 74.8125 -63.0325 74.8125 -85.8125 74.8125 C-85.8125 70.1925 -85.8125 65.5725 -85.8125 60.8125 C-93.7325 60.8125 -101.6525 60.8125 -109.8125 60.8125 C-109.8125 50.5825 -109.8125 40.3525 -109.8125 29.8125 C-104.17414063 29.91304687 -104.17414063 29.91304687 -98.421875 30.015625 C-94.74789849 30.0396608 -91.07443744 30.04301832 -87.40039062 30.04443359 C-84.86308783 30.05637764 -82.32578691 30.0895451 -79.7890625 30.14501953 C-63.72622043 31.17710187 -63.72622043 31.17710187 -49.87115479 24.57855225 C-48.46224812 23.00201955 -47.1896783 21.39837137 -45.95019531 19.68652344 C-43.8125 16.8125 -43.8125 16.8125 -41.35131836 15.34545898 C-38.51695061 13.6340449 -37.04761959 11.57166726 -35.06547546 8.96562195 C-25.72611235 -2.54521595 -13.67124688 -0.66283084 0 0 Z " fill="#FF8C00" transform="translate(114.8125,91.1875)"/>
<path d="M0 0 C36.96 0 73.92 0 112 0 C112 16.92962652 112 16.92962652 107.8227396 21.57979488 C107.19408465 22.16262517 106.56542971 22.74545546 105.91772461 23.34594727 C105.25225333 23.97866578 104.58678205 24.6113843 103.90114498 25.2632761 C95.09496096 32.70503877 85.26673316 31.88804585 74.31640625 31.46484375 C72.16315668 31.43680493 70.00981025 31.41548227 67.85643005 31.40052795 C62.23635379 31.34372907 56.62225761 31.19684674 51.0045166 31.02996826 C45.2531829 30.87546121 39.50086549 30.80779237 33.74804688 30.73242188 C22.49567079 30.57239147 11.24927213 30.30898499 0 30 C0 20.1 0 10.2 0 0 Z " fill="#B3BDBE" transform="translate(21,34)"/>
<path d="M0 0 C1.12067871 0.01131958 2.24135742 0.02263916 3.39599609 0.03430176 C6.95328294 0.07886093 10.5064448 0.17919454 14.0625 0.28125 C16.48301445 0.32140302 18.90359247 0.35790057 21.32421875 0.390625 C27.23982175 0.4717162 33.14658076 0.62825209 39.0625 0.78125 C39.0625 10.68125 39.0625 20.58125 39.0625 30.78125 C16.9525 30.78125 -5.1575 30.78125 -27.9375 30.78125 C-27.9375 15.78125 -27.9375 15.78125 -24.4375 11.84375 C-23.6957251 11.34266724 -22.9539502 10.84158447 -22.18969727 10.32531738 C-19.77389349 8.66908422 -18.26952984 6.88195484 -16.40234375 4.63867188 C-11.38559605 -0.4421095 -6.85336759 -0.26341315 0 0 Z " fill="#FE0000" transform="translate(56.9375,135.21875)"/>
<path d="M0 0 C20.79 0 41.58 0 63 0 C61.02 2.31 59.04 4.62 57 7 C55.52423941 8.90355205 54.05021455 10.80845132 52.578125 12.71484375 C38.45793681 29.98716461 38.45793681 29.98716461 27.28109741 31.33909607 C18.13264692 31.96407443 9.07871219 31.10742099 0 30 C0 20.1 0 10.2 0 0 Z " fill="#B4BDBD" transform="translate(40,78)"/>
<path d="M0 0 C17.82 0 35.64 0 54 0 C51.92630057 4.14739885 49.43045918 6.84221465 46.1875 10.04296875 C45.61797607 10.61203445 45.04845215 11.18110016 44.46166992 11.76741028 C43.2603412 12.96572498 42.05659002 14.16161539 40.85058594 15.35522461 C39.0013551 17.18615831 37.16029238 19.0250089 35.3203125 20.86523438 C34.15151325 22.0291196 32.98225795 23.19254707 31.8125 24.35546875 C31.26037842 24.90647751 30.70825684 25.45748627 30.1394043 26.02519226 C26.01274685 30.10062229 24.30492106 31.12792064 18.5546875 31.09765625 C17.58515137 31.09515869 16.61561523 31.09266113 15.61669922 31.09008789 C14.38193848 31.08098389 13.14717773 31.07187988 11.875 31.0625 C5.996875 31.0315625 5.996875 31.0315625 0 31 C0 20.77 0 10.54 0 0 Z " fill="#B4BDBD" transform="translate(5,121)"/>
</svg>
