<?xml version="1.0" encoding="UTF-8"?>
<svg version="1.1" xmlns="http://www.w3.org/2000/svg" width="1010" height="800">
<path d="M0 0 C7.59 0 15.18 0 23 0 C22.278125 3.52816406 21.55625 7.05632812 20.8125 10.69140625 C20.11588028 14.1198703 19.42159831 17.54880001 18.72753906 20.9777832 C18.24495569 23.35555891 17.75995398 25.73284516 17.27246094 28.10961914 C16.5710614 31.53144689 15.87845652 34.95495651 15.1875 38.37890625 C14.96876221 39.43646622 14.75002441 40.49402618 14.5246582 41.58363342 C13.48277678 46.79028907 12.52028465 51.68688403 13 57 C13.66 57.66 14.32 58.32 15 59 C19.44981551 58.70334563 22.28731715 57.37199182 26 55 C26.66 55 27.32 55 28 55 C28.09071777 54.31462158 28.18143555 53.62924316 28.27490234 52.9230957 C29.84629028 41.8961052 32.25578997 31.06508037 34.625 20.1875 C35.04983161 18.22338349 35.47431345 16.25919129 35.8984375 14.29492188 C36.92762189 9.52891371 37.9639521 4.76454128 39 0 C46.59 0 54.18 0 62 0 C59.37432563 14.48031484 56.7059762 28.93622299 53.5246582 43.30664062 C52.52003714 47.95417535 51.71922691 52.21081333 52 57 C54.28372618 58.43790167 55.57453109 59.03690292 58.296875 58.80078125 C61.63713559 57.81125319 63.79241715 56.22856778 66.5625 54.125 C67.49191406 53.42632812 68.42132812 52.72765625 69.37890625 52.0078125 C70.9826 50.77934963 72.57245455 49.53219893 74.13671875 48.25390625 C76.76646988 46.48419951 78.90984412 46.78930755 82 47 C79.89268456 51.67688485 76.60238377 54.73874503 73 58.3125 C72.32880127 58.98168457 71.65760254 59.65086914 70.96606445 60.34033203 C63.67496704 67.48572964 56.83129472 74.11605956 46.25 74.25 C44.43242188 74.28867187 44.43242188 74.28867187 42.578125 74.328125 C37.39462381 73.8527821 34.16577346 72.29180302 30.6875 68.4375 C29 66 29 66 28 64 C27.25234375 64.55429687 26.5046875 65.10859375 25.734375 65.6796875 C24.74953125 66.40414062 23.7646875 67.12859375 22.75 67.875 C21.28820312 68.95394531 21.28820312 68.95394531 19.796875 70.0546875 C15.1843749 73.26282304 12.707172 74.25941691 7 74 C6.87882812 74.86882812 6.75765625 75.73765625 6.6328125 76.6328125 C6.46523438 77.78523438 6.29765625 78.93765625 6.125 80.125 C5.96257812 81.26195312 5.80015625 82.39890625 5.6328125 83.5703125 C5.01866362 86.89884778 4.29617262 89.87287025 3 93 C-0.8570882 95.57139213 -4.51675226 96.21119526 -9 97.1875 C-10.22976563 97.47270508 -10.22976563 97.47270508 -11.484375 97.76367188 C-12.27328125 97.93833984 -13.0621875 98.11300781 -13.875 98.29296875 C-14.59429687 98.4530542 -15.31359375 98.61313965 -16.0546875 98.77807617 C-18 99 -18 99 -21 98 C-18.41166676 85.66491455 -15.82144172 73.33022803 -13.22878361 60.99605083 C-12.02504056 55.26912894 -10.82195589 49.54207037 -9.62036133 43.81469727 C-8.46128685 38.29011453 -7.30050195 32.76589374 -6.13851738 27.24192238 C-5.69493791 25.1316801 -5.25198066 23.02130693 -4.80964851 20.91080284 C-4.1912208 17.96061537 -3.57060602 15.01089606 -2.94946289 12.0612793 C-2.7660434 11.18374496 -2.5826239 10.30621063 -2.39364624 9.40208435 C-2.22398849 8.59861572 -2.05433075 7.79514709 -1.87953186 6.96733093 C-1.73296678 6.26953364 -1.58640169 5.57173635 -1.43539524 4.85279369 C-1 3 -1 3 0 0 Z " fill="#FFFFFF" transform="translate(478,275)"/>
<path d="M0 0 C6.27 0 12.54 0 19 0 C23.79737147 11.06655789 27.78957984 22.38441344 31.8125 33.75 C32.51207277 35.71885556 33.21194025 37.68760644 33.91210938 39.65625 C35.61147212 44.43630013 37.30684333 49.21774826 39 54 C40.83059817 51.25410275 41.73572101 49.17563671 42.77172852 46.08544922 C43.10870255 45.08786591 43.44567657 44.09028259 43.79286194 43.06246948 C44.15125656 41.98740143 44.50965118 40.91233337 44.87890625 39.8046875 C45.25103745 38.70150177 45.62316864 37.59831604 46.00657654 36.46170044 C47.19606446 32.93419108 48.37974986 29.4047737 49.5625 25.875 C50.74932366 22.33826071 51.93742516 18.8019722 53.12913513 15.26687622 C53.87110157 13.06546654 54.61015018 10.86307098 55.34608459 8.65963745 C55.8468174 7.17271896 55.8468174 7.17271896 56.35766602 5.65576172 C56.65141617 4.77878632 56.94516632 3.90181091 57.24781799 2.9982605 C58 1 58 1 59 0 C65.6 0 72.2 0 79 0 C79 24.42 79 48.84 79 74 C74.71 74 70.42 74 66 74 C65.67 55.85 65.34 37.7 65 19 C59.16155571 35.97653422 59.16155571 35.97653422 53.33251953 52.95629883 C52.59962523 55.08166072 51.86641146 57.20691248 51.1328125 59.33203125 C50.75439209 60.43945679 50.37597168 61.54688232 49.98608398 62.68786621 C49.62087646 63.74324585 49.25566895 64.79862549 48.87939453 65.88598633 C48.56406769 66.80309891 48.24874084 67.72021149 47.92385864 68.66511536 C47 71 47 71 45 74 C42.1796875 74.29296875 42.1796875 74.29296875 38.875 74.1875 C37.23144531 74.14689453 37.23144531 74.14689453 35.5546875 74.10546875 C34.71164063 74.07066406 33.86859375 74.03585937 33 74 C30.28218625 67.33156007 27.73452945 60.62256034 25.328125 53.8359375 C25.03728027 53.02036377 24.74643555 52.20479004 24.44677734 51.36450195 C23.37907889 48.36875106 22.31472532 45.37180887 21.25 42.375 C18.8575 35.65125 16.465 28.9275 14 22 C13.67 39.16 13.34 56.32 13 74 C8.71 74 4.42 74 0 74 C0 49.58 0 25.16 0 0 Z " fill="#FFFFFF" transform="translate(14,704)"/>
<path d="M0 0 C7.9262925 6.46136715 12.42334168 15.15065225 13.4921875 25.3046875 C14.04171187 34.68585353 13.84659767 43.39362395 10.4921875 52.3046875 C10.10933594 53.37783203 10.10933594 53.37783203 9.71875 54.47265625 C6.44330916 62.24055952 -0.07344944 67.61876179 -7.7578125 70.8046875 C-16.99336566 73.71505089 -26.71513795 73.44136331 -35.5078125 69.3046875 C-44.53891484 64.42789224 -49.47535937 56.89115224 -52.5078125 47.3046875 C-55.74999842 35.85035646 -54.57749739 20.93902651 -49.5078125 10.3046875 C-44.8022351 2.14916606 -38.79210424 -1.5612716 -30.2578125 -5.0078125 C-19.40724095 -6.99708395 -9.29492062 -6.28348216 0 0 Z M-33.01953125 9.70703125 C-39.55049407 17.72854414 -40.46745805 29.37958622 -39.5078125 39.3046875 C-38.2158565 46.78601412 -36.01206176 54.9573191 -29.65234375 59.68359375 C-25.26458877 62.11934941 -21.56316124 62.96001049 -16.5078125 62.3046875 C-10.4034842 60.18685931 -6.3021344 55.99069761 -3.5 50.234375 C0.62961094 39.04834149 0.66515641 25.84514314 -4.1953125 14.8671875 C-6.9752749 9.93432188 -11.13318128 6.09623124 -16.5078125 4.3046875 C-23.09570488 3.6588157 -28.1665277 5.20514941 -33.01953125 9.70703125 Z " fill="#FFFFFF" transform="translate(497.5078125,707.6953125)"/>
<path d="M0 0 C4.67729286 -0.07476614 9.35422951 -0.12888954 14.03198242 -0.16479492 C15.61960926 -0.17978013 17.20719543 -0.20017546 18.79467773 -0.22631836 C39.88345318 -0.56464096 39.88345318 -0.56464096 46.9375 5.9375 C47.48277344 6.42089844 48.02804687 6.90429688 48.58984375 7.40234375 C52.87534994 12.25766794 52.41340799 17.34670708 52.31640625 23.57421875 C51.77901587 29.39263061 49.81462195 32.27843559 45.5625 36.3125 C43.09311428 37.93868084 40.79080736 39.04315176 38 40 C39.66881312 46.17460855 42.88787057 51.46569436 46 57 C47.08803881 58.93486147 48.1715204 60.87229405 49.25 62.8125 C49.72953125 63.66457031 50.2090625 64.51664063 50.703125 65.39453125 C52 68 52 68 54 74 C49.05 74 44.1 74 39 74 C36.86005408 69.76596415 34.72258177 65.53086273 32.59130859 61.29248047 C31.86520743 59.85034935 31.13767335 58.40893878 30.40869141 56.96826172 C29.36245182 54.89998128 28.32135554 52.829183 27.28125 50.7578125 C26.95314331 50.11192169 26.62503662 49.46603088 26.2869873 48.80056763 C24 44.22774341 24 44.22774341 24 42 C19.05 42.495 19.05 42.495 14 43 C14 53.23 14 63.46 14 74 C9.71 74 5.42 74 1 74 C0.22709682 64.46307016 -0.13747955 55.07667255 -0.09765625 45.5078125 C-0.0962413 44.19585907 -0.09482635 42.88390564 -0.09336853 41.53219604 C-0.08960679 38.09643538 -0.07983328 34.66071909 -0.06866455 31.22497559 C-0.05831148 27.69816691 -0.05384159 24.17135084 -0.04882812 20.64453125 C-0.03820317 13.76300296 -0.02120626 6.88150363 0 0 Z M14 9 C14 16.92 14 24.84 14 33 C26.40599626 33.84013205 26.40599626 33.84013205 36.875 28.25 C38.4608222 25.07835561 38.87775001 22.54524971 39 19 C37.47795031 14.83439034 35.86752954 12.22675943 32 10 C26.34934971 8.07693487 19.85096396 8.94582441 14 9 Z " fill="#FFFFFF" transform="translate(338,704)"/>
<path d="M0 0 C0.94875 0.763125 1.8975 1.52625 2.875 2.3125 C1.31999019 6.12934226 -1.16095495 8.50445732 -4.125 11.3125 C-6.38121163 10.22617588 -8.49853544 9.07904035 -10.625 7.75 C-15.10074664 5.17644568 -18.96612569 4.88259381 -24.125 5.3125 C-30.592785 7.46432961 -34.76636187 11.04222371 -38.09375 17.06640625 C-41.87309475 26.00735609 -41.81194747 39.02282161 -38.4375 48.0625 C-35.79323678 53.43423752 -33.10190969 57.21421684 -27.75 60.1875 C-20.94683976 62.29882559 -16.43161952 61.52530617 -10.125 58.3125 C-7.78621124 56.74921635 -7.78621124 56.74921635 -6.125 55.3125 C-2.30815774 56.86750981 0.06695732 59.34845495 2.875 62.3125 C-2.54108089 68.405591 -9.00637346 71.91474686 -17.19140625 72.55078125 C-27.31093581 72.76560925 -35.53302417 71.59950983 -43.5 65 C-52.65471012 56.18227308 -55.9983213 46.31442506 -56.375 33.6875 C-56.2540401 22.84142887 -53.58155702 12.15881109 -46.046875 4.0859375 C-33.70710045 -7.45636862 -14.27542238 -10.04989736 0 0 Z " fill="#FFFFFF" transform="translate(281.125,707.6875)"/>
<path d="M0 0 C4.50503185 3.30626801 8.5369245 7.81736909 9.8203125 13.3359375 C10.58220208 20.19294374 9.95503046 25.68556047 5.8203125 31.3359375 C0.90448665 36.69216421 -3.71097297 38.99475246 -10.9921875 39.7109375 C-16.69086758 39.52570316 -21.73203036 37.49133707 -26.01171875 33.72265625 C-30.7211511 28.55488499 -32.67505616 23.51388728 -32.41796875 16.41015625 C-31.59822426 9.27434767 -28.73546782 5.18940228 -23.1484375 0.74609375 C-16.17976362 -4.24535719 -7.41204379 -4.2311667 0 0 Z " fill="#FFFFFF" transform="translate(708.1796875,489.6640625)"/>
<path d="M0 0 C4.43054554 3.05234149 7.36056338 7.35122139 9.046875 12.41015625 C9.75080796 19.55334483 9.42927413 25.53697032 5.046875 31.41015625 C0.31440393 36.55514296 -4.20312914 38.97746442 -11.203125 39.78515625 C-17.7163359 39.13383516 -23.03768395 37.16258104 -27.890625 32.72265625 C-31.75329621 26.51897218 -33.72377544 20.87269194 -32.5234375 13.54296875 C-30.58705304 6.30142138 -26.0575726 1.80441735 -19.703125 -1.90234375 C-12.80338598 -3.6272785 -6.39425955 -3.16311776 0 0 Z " fill="#FFFFFF" transform="translate(780.953125,364.58984375)"/>
<path d="M0 0 C4.78896202 3.00702266 7.3329481 6.66008509 9 12 C10.01923626 19.07288194 9.33137495 25.19519545 5 31 C0.26752893 36.14498671 -4.25000414 38.56730817 -11.25 39.375 C-17.1243908 38.78756092 -22.52465252 37.3431934 -26.90234375 33.19921875 C-31.19571304 27.79314251 -33.33500082 22.47078169 -32.875 15.5 C-31.99825112 9.57438685 -29.59149046 5.19122094 -25.0625 1.1875 C-17.13699232 -4.47357691 -8.50407453 -4.66890366 0 0 Z " fill="#FFFFFF" transform="translate(242,365)"/>
<path d="M0 0 C5.44749152 4.78683829 7.72849904 9.63338808 8.3125 16.875 C8.11404529 22.35861702 6.93928511 26.86342832 3.1953125 30.98828125 C-2.75119396 36.407456 -7.35896864 38.51275636 -15.44140625 38.30859375 C-21.30585613 37.60127842 -25.42831726 34.92440559 -29.375 30.625 C-33.58148211 25.24116012 -34.77932484 19.78395886 -34 13 C-32.81943338 6.88676887 -29.92388772 3.27095376 -25.11328125 -0.58984375 C-17.00358528 -6.00130446 -7.94356991 -4.92501335 0 0 Z " fill="#FFFFFF" transform="translate(585,563)"/>
<path d="M0 0 C4.72125059 5.5038492 6.4476649 10.23222999 6.33984375 17.4921875 C5.60492963 22.91534688 3.17943948 27.9159408 -0.78515625 31.70703125 C-7.26222048 36.47888112 -13.22907395 36.56684474 -21 36 C-27.5299196 33.74420959 -31.8783188 29.08727835 -35 23 C-37.1128803 17.23759918 -36.27214606 11.4570204 -33.9765625 5.921875 C-31.24535166 0.54685207 -27.68552276 -2.79540954 -22 -5 C-14.34748271 -7.26097102 -5.97873554 -5.14449337 0 0 Z " fill="#FFFFFF" transform="translate(712,98)"/>
<path d="M0 0 C5.44450851 4.79441795 7.72804417 9.62774771 8.3125 16.875 C8.11404529 22.35861702 6.93928511 26.86342832 3.1953125 30.98828125 C-2.75119396 36.407456 -7.35896864 38.51275636 -15.44140625 38.30859375 C-21.30585613 37.60127842 -25.42831726 34.92440559 -29.375 30.625 C-33.58148211 25.24116012 -34.77932484 19.78395886 -34 13 C-32.64725008 5.99516626 -28.76998511 1.98272395 -23 -2 C-15.03835388 -5.81495543 -7.27455284 -4.58525419 0 0 Z " fill="#FFFFFF" transform="translate(585,24)"/>
<path d="M0 0 C6.29373216 6.42062192 7.42144106 11.58356494 7.33984375 20.44140625 C6.77963355 26.3075154 4.58638872 29.70227074 0.25 33.5546875 C-5.43375958 37.89100408 -10.93675514 38.78103188 -18 38 C-24.46337906 36.33100245 -28.14585449 33.3444717 -31.90625 27.90234375 C-34.91605799 22.66742772 -34.42680912 16.85116507 -34 11 C-31.74420959 4.4700804 -27.08727835 0.1216812 -21 -3 C-13.78998686 -5.64367148 -6.39820998 -3.80946055 0 0 Z " fill="#FFFFFF" transform="translate(441,563)"/>
<path d="M0 0 C4.45406501 3.16923857 7.31388263 5.75430152 9 11 C9.70538586 17.67068599 9.97646127 24.35366588 6.47265625 30.28125 C2.74600492 34.63065739 -2.34150762 37.95340893 -8 39 C-14.89355671 39.53027359 -19.94989205 37.87165715 -25.75 34.3125 C-30.49741967 29.43320756 -32.25049273 24.81412949 -32.5 18 C-32.23626956 11.45618834 -30.94280703 6.75586642 -26.09375 2.21484375 C-18.03152547 -4.14769539 -9.17607286 -5.02087005 0 0 Z " fill="#FFFFFF" transform="translate(314,490)"/>
<path d="M0 0 C4.9221519 5.05887834 6.51803836 9.75360024 6.8125 16.8125 C6.60265848 22.85593565 5.42661317 26.89573157 1.25 31.3125 C-4.30608195 36.26088548 -9.06828939 37.62810539 -16.44140625 37.53125 C-22.05641482 36.99920181 -26.82236261 34.24013739 -30.75 30.3125 C-35.29412317 24.17941872 -35.60814112 17.73228113 -34.75 10.3125 C-32.49420959 3.7825804 -27.83727835 -0.5658188 -21.75 -3.6875 C-14.00803398 -6.52622087 -6.68206158 -4.10035597 0 0 Z " fill="#FFFFFF" transform="translate(441.75,24.6875)"/>
<path d="M0 0 C5.71499057 3.43977734 9.32857133 7.7332539 11.5078125 14.05859375 C12.41697637 21.13104292 11.80666779 27.23860505 7.5078125 33.05859375 C3.62585914 37.22770531 -0.66018326 39.68750354 -6.32421875 40.4296875 C-14.51017678 40.61207451 -19.00631768 39.13144231 -25.01953125 33.671875 C-29.14001612 29.31252144 -30.38500892 24.65853307 -30.55859375 18.828125 C-30.22516225 12.95770981 -28.29250375 8.53789983 -24.4921875 4.05859375 C-17.51520525 -1.38345241 -8.50485218 -3.21264792 0 0 Z " fill="#FFFFFF" transform="translate(778.4921875,218.94140625)"/>
<path d="M0 0 C5.71499057 3.43977734 9.32857133 7.7332539 11.5078125 14.05859375 C12.41697637 21.13104292 11.80666779 27.23860505 7.5078125 33.05859375 C3.62585914 37.22770531 -0.66018326 39.68750354 -6.32421875 40.4296875 C-15.44771719 40.63296335 -19.76513562 38.46155417 -26.3671875 32.43359375 C-29.92549114 26.78217032 -31.27405283 20.34948868 -29.8671875 13.74609375 C-27.4226109 7.19018376 -24.58249525 3.55728118 -18.4921875 0.05859375 C-12.74533052 -1.85702524 -5.7125507 -2.15787574 0 0 Z " fill="#FFFFFF" transform="translate(239.4921875,218.94140625)"/>
<path d="M0 0 C5.09774433 5.04625196 6.73119119 8.9355989 7.0625 16.125 C6.91542105 22.26729692 5.67478226 26.18705667 1.5625 30.75 C-3.97451625 36.01016544 -9.19091151 37.22317687 -16.65234375 37.0625 C-22.36498995 36.42152988 -26.55113638 34.05807345 -30.3125 29.75 C-35.00773005 23.12143993 -35.05131514 17.80003459 -34.4375 9.75 C-32.71028479 3.92064867 -28.41148044 0.06308837 -23.4375 -3.25 C-15.38495307 -6.79833453 -6.74151703 -5.56854245 0 0 Z " fill="#FFFFFF" transform="translate(316.4375,97.25)"/>
<path d="M0 0 C2.64 0 5.28 0 8 0 C10.19897461 2.2019043 10.19897461 2.2019043 11.90234375 5.32421875 C12.38266052 6.17257545 12.38266052 6.17257545 12.87268066 7.03807068 C13.92277407 8.90688607 14.92913585 10.79589436 15.9375 12.6875 C16.66161344 13.99184292 17.38895922 15.29439616 18.11938477 16.59521484 C19.64685228 19.32121827 21.15982455 22.05457272 22.6640625 24.79345703 C26.09090397 31.00217438 29.70298953 37.10224079 33.30789185 43.20864868 C34.42345584 45.10117444 35.53381201 46.9966528 36.64233398 48.89331055 C36.98752075 49.48338394 37.33270752 50.07345734 37.68835449 50.68141174 C38.01678345 51.24287399 38.3452124 51.80433624 38.68359375 52.3828125 C40.39711164 55.31209774 42.11725709 58.17588564 44 61 C44.33 40.87 44.66 20.74 45 0 C46.98 0 48.96 0 51 0 C51.33 24.42 51.66 48.84 52 74 C44 74 44 74 42.1965332 72.51318359 C41.81843506 71.81531738 41.44033691 71.11745117 41.05078125 70.3984375 C40.6021875 69.60953125 40.15359375 68.820625 39.69140625 68.0078125 C39.23636719 67.13898438 38.78132812 66.27015625 38.3125 65.375 C37.27777085 63.52840644 36.24259906 61.68206086 35.20703125 59.8359375 C34.4173999 58.39105957 34.4173999 58.39105957 33.61181641 56.91699219 C31.01377224 52.21516975 28.24984831 47.61407451 25.5 43 C24.53084626 41.35440438 23.5621079 39.70856406 22.59375 38.0625 C17.4313905 29.35382397 12.20864368 20.6810728 7 12 C6.67 32.46 6.34 52.92 6 74 C4.02 74 2.04 74 0 74 C0 49.58 0 25.16 0 0 Z " fill="#FFFFFF" transform="translate(570,704)"/>
<path d="M0 0 C2.05078125 0.03255208 4.1015625 0.06510417 6.15234375 0.09765625 C9.28690448 9.30128133 12.41657469 18.50655318 15.53997803 27.71397114 C16.99038648 31.98909392 18.44248586 36.26362677 19.8984375 40.53686523 C21.30292823 44.65926799 22.70299281 48.78314924 24.09997559 52.90810204 C24.63425687 54.48313271 25.17014231 56.05762016 25.7076416 57.63155556 C26.45906289 59.83279628 27.20480455 62.03588347 27.94921875 64.23950195 C28.17363647 64.89261856 28.3980542 65.54573517 28.62927246 66.21864319 C29.55974848 68.99030351 30.15234375 71.14853115 30.15234375 74.09765625 C28.17234375 74.09765625 26.19234375 74.09765625 24.15234375 74.09765625 C21.84234375 67.82765625 19.53234375 61.55765625 17.15234375 55.09765625 C6.92234375 55.09765625 -3.30765625 55.09765625 -13.84765625 55.09765625 C-16.15765625 61.36765625 -18.46765625 67.63765625 -20.84765625 74.09765625 C-22.82765625 74.09765625 -24.80765625 74.09765625 -26.84765625 74.09765625 C-24.62273611 65.42626943 -21.8777321 56.96823706 -18.99609375 48.49609375 C-18.53175362 47.12422278 -18.06761546 45.75228343 -17.60366821 44.38027954 C-16.63923916 41.53063704 -15.67252651 38.68178302 -14.70410156 35.83349609 C-13.46125457 32.17753236 -12.2240797 28.51967805 -10.98853111 24.86124229 C-10.03505294 22.03991684 -9.07874165 19.2195583 -8.12154007 16.39949417 C-7.66375788 15.04972957 -7.20684273 13.6996706 -6.7508049 12.34931564 C-6.11718162 10.47457856 -5.47935406 8.601264 -4.84130859 6.72802734 C-4.47951508 5.66200287 -4.11772156 4.59597839 -3.7449646 3.49765015 C-2.48639906 0.13141644 -2.48639906 0.13141644 0 0 Z M1.15234375 8.09765625 C-0.70287151 13.6139612 -2.55418598 19.13155365 -4.40185547 24.65039062 C-5.03131061 26.52868216 -5.66184097 28.40661371 -6.29345703 30.28417969 C-7.19975399 32.97888369 -8.10220973 35.67484742 -9.00390625 38.37109375 C-9.28826538 39.21384857 -9.57262451 40.05660339 -9.86560059 40.92489624 C-11.31314256 44.92321312 -11.31314256 44.92321312 -11.84765625 49.09765625 C-2.60765625 49.09765625 6.63234375 49.09765625 16.15234375 49.09765625 C14.48293799 43.90054595 12.81160662 38.7041392 11.13525391 33.50927734 C10.56574176 31.74239589 9.99737227 29.9751457 9.43017578 28.20751953 C8.6140175 25.66470764 7.79373942 23.12325651 6.97265625 20.58203125 C6.72049347 19.79334656 6.46833069 19.00466187 6.20852661 18.19207764 C5.07213408 14.68742611 3.96205915 11.32660904 2.15234375 8.09765625 C1.82234375 8.09765625 1.49234375 8.09765625 1.15234375 8.09765625 Z " fill="#FFFFFF" transform="translate(699.84765625,703.90234375)"/>
<path d="M0 0 C4.62 0 9.24 0 14 0 C14 24.42 14 48.84 14 74 C9.38 74 4.76 74 0 74 C0 49.58 0 25.16 0 0 Z " fill="#FFFFFF" transform="translate(153,704)"/>
<path d="M0 0 C1.98 0 3.96 0 6 0 C6.00586624 0.62925385 6.01173248 1.25850769 6.01777649 1.90682983 C6.08202763 8.4940004 6.16652714 15.08069665 6.26245117 21.66748047 C6.29557451 24.12119264 6.32364506 26.5749787 6.34643555 29.02880859 C6.38021329 32.56900328 6.43254167 36.10852849 6.48828125 39.6484375 C6.49467117 40.73426117 6.5010611 41.82008484 6.50764465 42.93881226 C6.65802403 50.84231753 7.70514026 58.00524416 11.6875 64.9375 C16.62115934 69.33779076 22.32220265 70.54286031 28.83203125 70.28515625 C34.93672095 69.48219706 39.17185597 66.70314838 43 62 C44.60880459 57.96051346 45.26002155 54.51174591 45.31884766 50.17822266 C45.33871735 49.05751373 45.35858704 47.93680481 45.37905884 46.78213501 C45.39061005 45.58817108 45.40216125 44.39420715 45.4140625 43.1640625 C45.43342865 41.92957367 45.4527948 40.69508484 45.4727478 39.42318726 C45.53240097 35.49052788 45.57887263 31.557839 45.625 27.625 C45.66212543 24.95439547 45.70224525 22.28384636 45.7421875 19.61328125 C45.83809096 13.07562886 45.92318029 6.53790298 46 0 C47.98 0 49.96 0 52 0 C52.09319077 7.25905382 52.16401115 14.51797605 52.20724869 21.77750969 C52.22801376 25.14941602 52.25612389 28.52090938 52.30175781 31.89257812 C52.35056663 35.78005653 52.37303643 39.66695735 52.390625 43.5546875 C52.41127014 44.74988007 52.43191528 45.94507263 52.45318604 47.17648315 C52.45528172 55.08707581 51.72124649 62.6895573 46.35455322 68.90597534 C40.55345716 74.44304419 34.44952972 76.15464061 26.5625 76.375 C19.23700086 76.1799925 13.84828841 74.82720389 7.6875 70.875 C1.81419841 64.59193318 -0.13333098 56.93232652 -0.11352539 48.4753418 C-0.11344986 47.39459885 -0.11337433 46.3138559 -0.11329651 45.20036316 C-0.10813522 44.0449855 -0.10297394 42.88960785 -0.09765625 41.69921875 C-0.0962413 40.50770706 -0.09482635 39.31619537 -0.09336853 38.08857727 C-0.08777728 34.28819249 -0.07522632 30.48786693 -0.0625 26.6875 C-0.05748387 24.10872481 -0.05292116 21.5299487 -0.04882812 18.95117188 C-0.03781071 12.63409443 -0.02108122 6.31705145 0 0 Z " fill="#FFFFFF" transform="translate(779,704)"/>
<path d="M0 0 C4.35270039 2.43816676 7.06391775 5.32010411 9.01953125 9.91796875 C10.50588405 15.29314397 10.30018592 20.222022 8.515625 25.4765625 C5.254731 30.15051057 1.20014253 33.67248463 -4.359375 35.1640625 C-9.88994111 35.68581402 -14.53119347 34.88245042 -19.359375 32.1640625 C-24.06835066 28.02587177 -26.13003189 23.49571746 -26.734375 17.3515625 C-26.57214078 11.97755411 -24.55930466 7.48461494 -20.86328125 3.5859375 C-14.98490945 -1.51549239 -7.36418804 -2.60916596 0 0 Z " fill="#FFFFFF" transform="translate(638.359375,117.8359375)"/>
<path d="M0 0 C4.06575732 2.78278501 6.44877969 6.51242408 7.7578125 11.203125 C8.38057183 17.53451149 7.42918732 21.9486803 3.7578125 27.203125 C-0.28398806 31.46653864 -4.06388317 33.3406638 -9.9296875 33.515625 C-15.13864359 33.44718616 -19.06103484 32.36071604 -23.2421875 29.203125 C-28.1266573 23.06622704 -28.88510007 17.82282956 -28.2421875 10.203125 C-26.21800345 4.24302752 -22.3104202 0.89872728 -16.8671875 -2.109375 C-10.45578392 -3.78855213 -5.70735149 -3.17821142 0 0 Z " fill="#FFFFFF" transform="translate(535.2421875,77.796875)"/>
<path d="M0 0 C4.12933542 4.23800214 5.7985229 7.95164951 6.375 13.8125 C6.21276578 19.18650839 4.19992966 23.67944756 0.50390625 27.578125 C-4.36132673 31.8003222 -8.30659046 32.30597243 -14.50390625 32.20703125 C-19.85290798 31.76337383 -22.85846113 29.36231769 -26.3125 25.5 C-30.54413423 20.4353669 -30.52791536 15.36486629 -30 9 C-28.24176111 3.62185751 -24.66224914 0.07808707 -20 -3 C-12.62820181 -5.40416208 -6.29498194 -4.30856541 0 0 Z " fill="#FFFFFF" transform="translate(487,514)"/>
<path d="M0 0 C4.90713015 2.31973425 7.8111048 5.71776931 11 10 C12.85804418 15.57413253 12.80631384 20.94275568 10.3125 26.3125 C7.8096957 30.72973004 4.8668163 33.08829902 0.3125 35.3125 C-5.64746484 36.54947383 -10.92136986 36.03931507 -16.375 33.3125 C-20.50235419 29.6764975 -23.64727874 25.56112811 -24.203125 19.94921875 C-24.34124002 13.28516884 -23.07957409 9.34618616 -18.5625 4.25 C-12.85564548 -0.76089665 -7.3909667 -0.79366085 0 0 Z " fill="#FFFFFF" transform="translate(305,380)"/>
<path d="M0 0 C5.03711736 3.59794097 8.44597809 7.74408605 9.625 13.875 C9.79752356 19.99451231 8.9363252 24.67543023 5.01953125 29.47265625 C0.96675317 33.54813897 -3.09534483 34.65580239 -8.625 35.1875 C-14.68172265 34.68277311 -19.3133091 32.43404337 -23.3125 27.8125 C-27.04962124 22.48993339 -27.12602145 17.19393909 -26.375 10.875 C-24.51010588 5.82389664 -21.32700337 1.88993601 -16.46484375 -0.50390625 C-10.9478203 -2.14354499 -5.40752943 -1.80250981 0 0 Z " fill="#FFFFFF" transform="translate(421.375,93.125)"/>
<path d="M0 0 C3.70649308 4.26808294 6.25451342 8.69088237 6.5 14.4375 C5.72633921 21.40044712 3.38451759 25.83181425 -1.9375 30.375 C-6.87126377 33.43178842 -12.33314297 32.96261279 -17.9375 32.375 C-23.31852453 30.69283248 -26.25019087 27.23282804 -28.9375 22.375 C-30.60825165 17.36274506 -31.00281518 12.07043108 -29.03125 7.08203125 C-26.0572332 2.00141922 -22.43655821 -1.66859076 -16.59375 -3.265625 C-10.89011178 -4.0372937 -5.00709854 -2.7698843 0 0 Z " fill="#FFFFFF" transform="translate(598.9375,496.625)"/>
<path d="M0 0 C4.0933423 2.33671836 6.78959413 5.13643712 8.75 9.4375 C10.2726668 15.09741278 10.01373705 19.98395166 7.75 25.4375 C4.42042826 30.38429229 1.46850458 32.72194863 -4.25 34.4375 C-9.82423061 35.25103636 -14.54074653 34.64203 -19.453125 31.8125 C-23.75775083 28.51852545 -25.85064743 24.87289601 -26.7265625 19.53125 C-27.01142688 13.59407658 -26.45092085 8.90503374 -22.859375 4.0625 C-16.57410945 -2.28378754 -8.10455715 -3.51908403 0 0 Z " fill="#FFFFFF" transform="translate(684.25,424.5625)"/>
<path d="M0 0 C4.85326022 2.43736741 7.95865199 6.39314863 9.828125 11.38671875 C10.74864987 17.56738571 10.54989626 23.17623898 6.828125 28.38671875 C2.5864255 32.53415826 -1.22200197 35.32884515 -7.3046875 35.41796875 C-12.88661228 35.03953317 -16.6426792 33.6726059 -21.171875 30.38671875 C-25.61678549 24.77209498 -26.764505 20.49827879 -26.171875 13.38671875 C-24.20636309 7.47895153 -21.1753617 3.9761766 -16.171875 0.38671875 C-11.58499348 -1.90672201 -4.84496888 -1.36809373 0 0 Z " fill="#FFFFFF" transform="translate(725.171875,318.61328125)"/>
<path d="M0 0 C4.12735419 3.6360025 7.27227874 7.75137189 7.828125 13.36328125 C7.93393644 18.46868316 7.61072863 21.97837779 4.625 26.3125 C-0.16938882 31.14089158 -3.74139037 33.44246047 -10.6875 33.625 C-15.77005647 33.56473253 -18.50873329 32.81055083 -22.375 29.3125 C-27.09315462 24.38864927 -28.7442387 20.47969509 -28.65625 13.7265625 C-28.04597695 8.48838553 -25.6792518 4.6167518 -22 0.9375 C-14.81178793 -3.51234557 -7.56824352 -3.78412176 0 0 Z " fill="#FFFFFF" transform="translate(334.375,164.6875)"/>
<path d="M0 0 C4.83735148 2.61364524 8.06265925 6.09032151 9.79296875 11.28125 C10.30087685 17.50312421 10.54651231 23.02628901 6.79296875 28.28125 C2.55126925 32.42868951 -1.25715822 35.2233764 -7.33984375 35.3125 C-12.91921291 34.93423768 -16.71596191 33.62753696 -21.20703125 30.28125 C-24.94114161 25.26968084 -26.4559743 20.55894426 -26.20703125 14.28125 C-25.18354407 8.37734499 -22.45869504 5.0648212 -17.828125 1.41015625 C-12.88919438 -2.02924363 -5.60974529 -1.8268905 0 0 Z " fill="#FFFFFF" transform="translate(290.20703125,268.71875)"/>
<path d="M0 0 C4.1501621 3.40659139 6.60196228 6.20672298 7.2109375 11.6875 C7.34226413 22.95532464 7.34226413 22.95532464 2.875 27.6640625 C-2.8307297 32.69053867 -6.40728274 33.0115589 -13.91796875 32.9453125 C-18.03422519 32.58432533 -20.13527204 31.50047107 -23.125 28.6640625 C-23.8675 27.9628125 -24.61 27.2615625 -25.375 26.5390625 C-28.2829051 21.76178983 -29.5194847 16.81994009 -28.8203125 11.2265625 C-27.22212118 5.38625842 -24.24753264 1.82704003 -19.125 -1.3359375 C-12.7435072 -4.22567009 -5.9617142 -3.74798944 0 0 Z " fill="#FFFFFF" transform="translate(380.125,471.3359375)"/>
<path d="M0 0 C5.43706467 2.57545169 8.73465134 6.34879328 11.3125 11.75 C12.52199935 17.46763329 11.98404318 22.13734684 9.25 27.3125 C4.89663494 32.51235271 1.30641094 34.77350416 -5.375 35.8671875 C-10.61799919 36.13245829 -14.91932548 34.85774511 -18.859375 31.33984375 C-23.60640882 26.0163844 -24.3037204 21.76487848 -24.2109375 14.72265625 C-23.80839243 9.52684308 -21.77220076 6.49715616 -17.9375 3.1875 C-12.29257113 -1.01617043 -6.88724912 -0.60399749 0 0 Z " fill="#FFFFFF" transform="translate(707,206)"/>
<path d="M0 0 C4.09200719 2.91744957 6.13912848 6.52506638 7.6875 11.203125 C7.98828125 14.54296875 7.98828125 14.54296875 8 18.140625 C8.01675781 19.32527344 8.03351562 20.50992188 8.05078125 21.73046875 C7.38305689 28.1133392 4.4235367 32.04465375 -0.3125 36.203125 C-5.62295732 39.62382499 -12.2684119 38.74129723 -18.3125 38.203125 C-22.76434277 37.00688153 -25.51399637 34.30822012 -28.1875 30.640625 C-31.84702733 24.10921694 -32.03944102 17.06822362 -30.3125 9.890625 C-28.22113949 3.8563784 -24.3234057 0.99339325 -19 -2.171875 C-12.1939764 -3.75467119 -6.12369767 -3.50631076 0 0 Z M-22.6875 6.265625 C-25.38577034 11.14326753 -26.78478052 16.08902534 -25.9375 21.67578125 C-24.47601168 26.64982388 -22.43151104 29.90791617 -18.3125 33.203125 C-14.60911796 34.43758568 -11.16589582 34.65293774 -7.3125 34.203125 C-4.3870356 32.8521962 -4.3870356 32.8521962 -2.3125 31.203125 C-2.90804687 30.96851563 -3.50359375 30.73390625 -4.1171875 30.4921875 C-6.82500691 28.90218678 -7.81850718 27.24819169 -9.4375 24.578125 C-10.86567819 22.16065411 -10.86567819 22.16065411 -12.3125 20.203125 C-12.9725 20.203125 -13.6325 20.203125 -14.3125 20.203125 C-14.3125 23.503125 -14.3125 26.803125 -14.3125 30.203125 C-15.9625 30.203125 -17.6125 30.203125 -19.3125 30.203125 C-19.3125 22.283125 -19.3125 14.363125 -19.3125 6.203125 C-8.0625 6.203125 -8.0625 6.203125 -4.3125 8.203125 C-3.5625 11.390625 -3.5625 11.390625 -3.3125 15.203125 C-5.25 18.140625 -5.25 18.140625 -7.3125 20.203125 C-5.3325 23.173125 -3.3525 26.143125 -1.3125 29.203125 C2.41746045 25.47316455 2.87608112 23.09912453 3.0625 18.015625 C2.99137434 13.13381825 2.23394976 9.79006299 -0.60546875 5.796875 C-7.29651135 -0.4501396 -16.09850764 0.54360532 -22.6875 6.265625 Z M-14.3125 10.203125 C-14.3125 12.183125 -14.3125 14.163125 -14.3125 16.203125 C-12.3325 15.873125 -10.3525 15.543125 -8.3125 15.203125 C-8.3125 13.883125 -8.3125 12.563125 -8.3125 11.203125 C-9.37895115 9.90678879 -9.37895115 9.90678879 -11.875 10.140625 C-12.679375 10.16125 -13.48375 10.181875 -14.3125 10.203125 Z " fill="#FFFFFF" transform="translate(987.3125,687.796875)"/>
<path d="M0 0 C3.79853672 1.7956719 5.52011124 3.29616315 7.875 6.75 C9.47118554 11.36120266 9.93164655 15.35770301 8.30859375 19.9609375 C6.76340894 23.02544629 5.08534212 24.93847429 2.3125 26.9375 C-3.40044475 28.76995398 -7.94627845 29.02686078 -13.375 26.3125 C-16.79351181 23.30095388 -18.68960411 21.28773267 -19.31640625 16.66796875 C-19.58213652 10.95048191 -18.96847152 7.39749547 -15 3 C-10.62994645 -0.8559296 -5.54488203 -0.79085657 0 0 Z " fill="#FFFFFF" transform="translate(645,378)"/>
<path d="M0 0 C3.86720247 2.00521609 6.94761566 4.11127178 9 8 C10.39055814 14.05886049 10.11418593 17.41594247 7 23 C4.25447866 26.2603066 2.25771063 27.78014803 -2.0859375 28.203125 C-6.91335921 28.30198005 -10.13041305 28.20622918 -14 25 C-17.40357661 21.69096718 -18.72764121 18.83780872 -19.09765625 14.0546875 C-18.86535393 9.16704663 -16.95185655 5.88220851 -13.4375 2.625 C-8.9380852 -0.37460987 -5.3410846 -0.65639592 0 0 Z " fill="#FFFFFF" transform="translate(585,437)"/>
<path d="M0 0 C3.99058938 2.87693653 6.1499299 6.14542674 7.0703125 10.92578125 C7.3832098 16.29718491 5.87781821 19.65575714 2.6875 23.9375 C-1.96621863 27.29250646 -6.74424162 27.83560619 -12.3125 26.9375 C-16.69549083 24.74600458 -19.51324724 22.53559038 -21.3125 17.9375 C-21.99676057 12.89424616 -21.8864862 9.10673116 -19.625 4.5 C-13.92042077 -1.8212905 -7.94567015 -2.54861118 0 0 Z " fill="#FFFFFF" transform="translate(669.3125,298.0625)"/>
<path d="M0 0 C3.36311688 3.04782467 4.71824887 5.74587072 5.875 10.125 C6.06854879 15.83468938 4.62562393 19.89130808 0.9375 24.25 C-3.29510702 26.50138671 -7.2301668 27.00390583 -12 26.8125 C-16.70899099 25.24283634 -19.4841288 23.09879908 -22 18.8125 C-23.42882377 13.99137206 -23.4633822 10.04722168 -21.375 5.4375 C-16.75159984 -2.37713597 -8.12975658 -3.21802865 0 0 Z " fill="#FFFFFF" transform="translate(508,460.1875)"/>
<path d="M0 0 C4.22453372 3.18832733 5.92614859 6.60577124 6.71875 11.796875 C6.88698651 16.25113687 5.38724493 19.07894304 2.98828125 22.71875 C-0.36227136 26.16503269 -2.89561747 26.85024079 -7.63671875 27.28125 C-12.73121129 26.83436469 -15.76614731 25.28562646 -19.51171875 21.84375 C-21.82582942 17.90119109 -22.51790206 14.52895644 -22.19921875 9.96875 C-20.99717326 5.88886619 -19.18272711 2.92245508 -16.13671875 -0.03125 C-10.8456226 -1.83247422 -5.18000734 -2.42899101 0 0 Z " fill="#FFFFFF" transform="translate(426.19921875,438.03125)"/>
<path d="M0 0 C4.01117557 2.10756683 6.55142868 4.01718517 8.09375 8.28125 C8.80318084 12.95046319 9.22211715 17.30747015 6.81640625 21.515625 C4.12081068 24.70552293 2.00924624 27.09032636 -2.296875 27.51953125 C-6.92397065 27.63963346 -10.15378676 27.63060793 -14.40625 25.65625 C-18.24373898 22.01063546 -19.71718617 19.0458457 -20.28125 13.78125 C-19.7253074 8.59245238 -18.2399235 5.51489799 -14.40625 1.96875 C-9.95974505 -1.03264084 -5.14637539 -1.94043662 0 0 Z " fill="#FFFFFF" transform="translate(364.90625,377.71875)"/>
<path d="M0 0 C4.03843343 2.60254599 6.29289779 5.25369336 7.8125 9.8125 C8.39950933 15.91739702 7.27704979 18.943403 3.8125 23.8125 C-0.01996105 27.41269069 -4.40621189 27.42453635 -9.453125 27.30859375 C-13.81242488 26.5176922 -16.42160904 24.16983934 -19.1875 20.8125 C-21.16324437 16.86101126 -20.61940217 12.11935543 -20.1875 7.8125 C-18.3817807 3.92325842 -16.92002453 2.30084969 -13.375 -0.0625 C-8.46793432 -1.79440553 -4.88252524 -1.81897999 0 0 Z " fill="#FFFFFF" transform="translate(366.1875,216.1875)"/>
<path d="M0 0 C3.57402113 2.96364303 5.69131978 4.93045213 6.1640625 9.78515625 C6.26291755 14.61257796 6.16716668 17.8296318 2.9609375 21.69921875 C-0.34809532 25.10279536 -3.20125378 26.42685996 -7.984375 26.796875 C-12.87201587 26.56457268 -16.15685399 24.6510753 -19.4140625 21.13671875 C-22.41367237 16.63730395 -22.69545842 13.04030335 -22.0390625 7.69921875 C-19.6799701 3.14954055 -17.0338832 -0.01728666 -12.2890625 -2.05078125 C-7.75169887 -2.55493276 -3.87757469 -2.47362523 0 0 Z " fill="#FFFFFF" transform="translate(589.0390625,158.30078125)"/>
<path d="M0 0 C3.9655082 2.08799582 6.47391909 4.07786562 8.02734375 8.28125 C8.70369468 13.32851882 8.6035723 17.10745111 6.33984375 21.71875 C3.30849681 25.07781012 1.28594727 26.97480631 -3.3046875 27.59765625 C-7.64287292 27.79928106 -10.43956024 27.53325902 -14.41015625 25.65625 C-18.33929773 22.01460668 -20.09483328 18.61122533 -20.41015625 13.28125 C-20.21713754 8.23381079 -17.61940926 5.19148349 -14.41015625 1.46875 C-10.50949597 -1.75353458 -4.58128401 -1.66922031 0 0 Z " fill="#FFFFFF" transform="translate(424.97265625,156.71875)"/>
<path d="M0 0 C4.03843343 2.60254599 6.29289779 5.25369336 7.8125 9.8125 C8.39950933 15.91739702 7.27704979 18.943403 3.8125 23.8125 C0.00629188 27.28286623 -3.88043265 27.26965077 -8.8203125 27.09375 C-13.44160616 26.54468541 -15.46161988 24.61685364 -18.5 21.25 C-20.76392572 16.63829945 -20.99198032 12.86102445 -20.1875 7.8125 C-18.37516463 3.97871364 -16.88723473 2.27898982 -13.375 -0.0625 C-8.46793432 -1.79440553 -4.88252524 -1.81897999 0 0 Z " fill="#FFFFFF" transform="translate(344.1875,297.1875)"/>
<path d="M0 0 C4.02903134 2.25089491 6.5349847 4.60495409 8 9 C8.39391661 13.46943849 8.4824096 17.6130724 7 21.875 C3.55244606 25.53802606 -0.23655347 27.76193282 -5.3125 28.19921875 C-11.03981302 27.86061072 -14.11195031 26.17254113 -18 22 C-20.28833963 18.04741337 -20.39569707 14.51094661 -20 10 C-18.69569775 6.30447697 -17.34019136 4.32318179 -14.5 1.625 C-9.58810883 -0.6555209 -5.32129325 -1.0396159 0 0 Z " fill="#FFFFFF" transform="translate(506,135)"/>
<path d="M0 0 C4.38299083 2.19149542 7.20074724 4.40190962 9 9 C9.68426057 14.04325384 9.5739862 17.83076884 7.3125 22.4375 C4.38247592 25.68428344 2.30721183 27.69741484 -2.14453125 28.28125 C-6.9149107 28.47111585 -10.20518088 28.1442787 -14 25 C-17.78837288 21.42209228 -18.74929493 18.26010605 -19.1015625 13.2109375 C-18.89714172 8.76085431 -16.82704313 5.95626862 -14 2.6875 C-9.94415571 -0.73461862 -5.05727327 -0.62243363 0 0 Z " fill="#FFFFFF" transform="translate(645,216)"/>
<path d="M0 0 C14.19 0 28.38 0 43 0 C43.495 2.475 43.495 2.475 44 5 C37.4 5 30.8 5 24 5 C24.16371094 8.11695313 24.32742188 11.23390625 24.49609375 14.4453125 C25.09556883 26.92481157 25.1140591 39.38407951 25.0625 51.875 C25.05746503 54.03906144 25.05290572 56.20312404 25.04882812 58.3671875 C25.03800346 63.57815463 25.02085401 68.78906376 25 74 C23.02 74 21.04 74 19 74 C19 51.23 19 28.46 19 5 C12.73 5 6.46 5 0 5 C0 3.35 0 1.7 0 0 Z " fill="#FFFFFF" transform="translate(881,704)"/>
<path d="M0 0 C3.27769821 3.27769821 4.90114476 5.69016804 5.25 10.3125 C4.93937504 14.8942182 3.56194875 17.14575675 0.6640625 20.5859375 C-2.38554568 23.17738859 -6.12344066 23.11265215 -10 23 C-14.2944728 21.48898179 -16.61881395 19.84547863 -19 16 C-19.74084808 11.53312186 -19.47544717 7.31447158 -17.9375 3.0625 C-12.66669482 -2.54835712 -6.84249804 -2.96464132 0 0 Z " fill="#FFFFFF" transform="translate(558,205)"/>
<path d="M0 0 C3.80323152 1.40554208 4.79161927 2.66390205 6.9375 6.125 C8.61776857 10.62162782 7.7403503 14.63222764 6 19 C3.70782334 21.9576473 2.55208165 22.81597278 -1 24 C-6.00020732 24.37038573 -9.05280378 24.20042937 -13 21 C-15.39330925 18.35476346 -16.87408856 16.39983892 -17.19921875 12.78515625 C-16.94746553 8.46219373 -16.3490052 6.42954486 -13.5625 3 C-9.08309217 -0.49612318 -5.54826783 -0.50963292 0 0 Z " fill="#FFFFFF" transform="translate(596,242)"/>
<path d="M0 0 C3.210294 1.53218577 5.69973477 3.29305805 8 6 C9.31731308 10.37714788 9.32538863 14.07521127 7.8125 18.375 C5.99495749 21.00730294 4.69496586 22.3312311 2 24 C-2.44994992 24.73804048 -6.67583197 24.45078061 -10.9375 23 C-13.95802408 20.07100696 -15.28450316 17.13807964 -16 13 C-15.81040674 8.44151862 -14.77906176 5.75958521 -11.5 2.5625 C-7.36240936 -0.02349415 -4.94246527 -0.33508239 0 0 Z " fill="#FFFFFF" transform="translate(560,390)"/>
<path d="M0 0 C3.13316436 2.59985979 5.7748786 4.79640787 6.203125 8.98828125 C6.37081632 17.30297565 6.37081632 17.30297565 3 21 C-0.73625286 23.1555305 -3.24182237 24 -7.5625 24 C-11.91537408 22.73370936 -13.80518897 21.19481103 -17 18 C-18.50650776 13.48047673 -18.74563919 9.64040622 -16.75 5.25 C-12.24637844 -0.54037058 -7.09177707 -2.0597949 0 0 Z " fill="#FFFFFF" transform="translate(414,356)"/>
<path d="M0 0 C3.4092638 2.12983222 5.69649215 4.08947645 7 8 C7.3711875 13.01103128 7.11788946 15.99128499 4 20 C1.15495411 22.95041796 -1.83441004 23.75263178 -5.90234375 24.1328125 C-9.75119155 23.88912381 -11.91759529 22.28097949 -15 20 C-17.62853157 15.82578707 -17.53097075 11.78730082 -17 7 C-15.56676684 3.12183967 -14.3542111 2.20435256 -10.75 0.125 C-6.48560758 -1.15431773 -4.26488674 -1.24069433 0 0 Z " fill="#FFFFFF" transform="translate(600,350)"/>
<path d="M0 0 C3.85291642 2.99671277 5.02849764 4.76906096 6.125 9.625 C6.49452088 13.75901486 5.65970597 16.29608812 3.25 19.75 C-0.41956986 22.98785576 -3.88792717 23.22309273 -8.6015625 23.02734375 C-11.73182907 22.62325479 -13.40976627 21.88374252 -15.75 19.75 C-17.93416347 15.96411665 -18.76302405 13.50539494 -18.6875 9.125 C-17.4616019 4.71176684 -15.64335918 2.1210532 -11.9375 -0.5625 C-7.68084381 -1.90030623 -4.06253011 -1.8466046 0 0 Z " fill="#FFFFFF" transform="translate(613.75,296.25)"/>
<path d="M0 0 C3.33336866 1.70544443 5.42560251 4.13840376 7.5 7.25 C8.2612514 11.43688267 7.46119719 15.03177414 6 19 C3.70782334 21.9576473 2.55208165 22.81597278 -1 24 C-5.9455528 24.57698116 -8.87948515 24.59136881 -12.9375 21.5625 C-16.14927589 18.43912161 -17.10841579 15.69058422 -17.2734375 11.25 C-16.79740222 7.33290969 -15.38088952 5.15306991 -13 2 C-8.84633417 -0.58411778 -4.76022644 -0.808496 0 0 Z " fill="#FFFFFF" transform="translate(501,191)"/>
<path d="M0 0 C2.70552388 2.19823815 4.44778333 3.89556667 6 7 C6.42567769 11.16672973 6.38103927 14.9045121 5 18.875 C2.09229576 21.96443576 -0.83011781 23.27900433 -5 24 C-9.55848138 23.81040674 -12.24041479 22.77906176 -15.4375 19.5 C-18.02349415 15.36240936 -18.33508239 12.94246527 -18 8 C-16.48007896 4.81540354 -14.71704041 2.26420034 -12 0 C-7.82507137 -1.39164288 -4.24477353 -1.10959869 0 0 Z " fill="#FFFFFF" transform="translate(509,407)"/>
<path d="M0 0 C3.9933504 3.42287177 4.51875926 4.91136663 4.9375 10.1875 C4.82507433 13.96781322 4.08919347 16.2759734 1.625 19.25 C-1.83545307 22.11723254 -4.87717821 22.78417629 -9.37890625 22.60546875 C-13.42593604 21.88476481 -16.25597573 19.67421271 -18.75 16.5 C-20.19899408 11.28362133 -20.07553657 7.60103481 -17.625 2.875 C-12.72832137 -2.83779173 -6.58393652 -3.41389301 0 0 Z " fill="#FFFFFF" transform="translate(399.375,303.75)"/>
<path d="M0 0 C3.62531608 1.8741654 5.69121639 4.07364917 7 8 C7.57698116 12.9455528 7.59136881 15.87948515 4.5625 19.9375 C1.41781811 23.18626119 -1.35089456 24.05263955 -5.8203125 24.203125 C-10.26559706 23.78886909 -12.96252059 22.17581 -15.875 18.875 C-17.45678925 14.83264971 -17.82702725 11.27798641 -17 7 C-13.00786183 -0.11192023 -7.62180958 -1.06215111 0 0 Z " fill="#FFFFFF" transform="translate(454,394)"/>
<path d="M0 0 C3.50252011 2.04313673 5.77361702 4.09787233 7 8 C7.45778685 13.03565533 7.0454675 15.93937667 4 20 C1.72788708 22.69730365 0.18827608 23.4759478 -3.3125 23.875 C-7.67267541 24.22239609 -10.33224509 23.53249744 -14 21 C-17.39414392 17.24045781 -17.56044772 14.39850604 -17.4296875 9.48046875 C-16.73257257 5.45621441 -14.96066221 3.74918634 -12 1 C-8.29778834 -0.85110583 -4.04093083 -0.46454795 0 0 Z " fill="#FFFFFF" transform="translate(410,248)"/>
<path d="M0 0 C3.96220871 3.3961789 4.49510792 4.90778181 5 10.125 C4.88735068 14.43785966 3.45117939 16.95279071 0.625 20.25 C-2.36312362 22.59781141 -5.59411188 22.66825081 -9.34375 22.5703125 C-13.41825238 21.92779482 -16.25254791 19.67857538 -18.75 16.5 C-20.19899408 11.28362133 -20.07553657 7.60103481 -17.625 2.875 C-12.72832137 -2.83779173 -6.58393652 -3.41389301 0 0 Z " fill="#FFFFFF" transform="translate(450.375,208.75)"/>
</svg>
